<svg width="20" height="20" viewBox="0 0 20 20" fill="none" xmlns="http://www.w3.org/2000/svg">
<path d="M18.3333 0H1.66667C0.75 0 0 0.75 0 1.66667V18.3333C0 19.25 0.75 20 1.66667 20H18.3333C19.25 20 20 19.25 20 18.3333V1.66667C20 0.75 19.25 0 18.3333 0ZM6.66667 15.8333H3.75V7.5H6.66667V15.8333ZM5.20833 6.25C4.29167 6.25 3.54167 5.5 3.54167 4.58333C3.54167 3.66667 4.29167 2.91667 5.20833 2.91667C6.125 2.91667 6.875 3.66667 6.875 4.58333C6.875 5.5 6.125 6.25 5.20833 6.25ZM16.6667 15.8333H13.75V11.6667C13.75 10.7917 13.0417 10.0833 12.1667 10.0833C11.2917 10.0833 10.5833 10.7917 10.5833 11.6667V15.8333H7.91667V7.5H10.5833V8.75C11.0417 7.91667 12.125 7.29167 13.125 7.29167C15.0417 7.29167 16.6667 8.91667 16.6667 10.8333V15.8333Z" fill="#505F79"/>
</svg> 