<svg width="20" height="16" viewBox="0 0 20 16" fill="none" xmlns="http://www.w3.org/2000/svg">
<path d="M18.4042 1.88042L20 0.337684V0H14.4717L10.5317 9.90674L6.04917 0H0.2525V0.337684L2.11667 2.60211C2.29833 2.77211 2.39333 3.01674 2.37417 3.26421V12.1905C2.42667 12.5155 2.32333 12.8483 2.09583 13.0858L0 15.6232V15.9579H5.95417V15.6202L3.85833 13.0858C3.62667 12.8453 3.51917 12.5155 3.565 12.1905V4.46842L8.79167 15.9609H9.39917L13.8933 4.46842V13.6468C13.8933 13.8873 13.8933 13.9343 13.7367 14.0937L12.12 15.6705V16H19.9633V15.6623L18.405 14.1342C18.2683 14.0311 18.1975 13.8577 18.2267 13.6874V2.32737C18.1975 2.15421 18.2675 1.98074 18.4042 1.88042Z" fill="#505F79"/>
</svg> 