<svg width="20" height="20" viewBox="0 0 20 20" fill="none" xmlns="http://www.w3.org/2000/svg">
<path d="M19.7587 3.77438C19.0951 4.06388 18.3828 4.26067 17.6315 4.35125C18.3981 3.88551 18.9897 3.15701 19.2675 2.30188C18.5529 2.72063 17.7676 3.02301 16.9315 3.18375C16.2616 2.46313 15.3111 2 14.2659 2C12.2679 2 10.6481 3.61988 10.6481 5.61788C10.6481 5.90125 10.6809 6.17725 10.7431 6.44175C7.75844 6.29213 5.11812 4.84738 3.30656 2.644C3.00156 3.17275 2.82656 3.78488 2.82656 4.43888C2.82656 5.67588 3.45156 6.76413 4.40156 7.39513C3.79531 7.37638 3.22469 7.21225 2.72094 6.93963V6.98413C2.72094 8.74138 3.96344 10.2026 5.61156 10.5339C5.31469 10.6164 5.00281 10.6608 4.68031 10.6608C4.45281 10.6608 4.23281 10.6376 4.01781 10.5946C4.46531 12.0296 5.80656 13.0934 7.39031 13.1224C6.15031 14.1059 4.59344 14.6896 2.90469 14.6896C2.62094 14.6896 2.33906 14.6721 2.06406 14.6384C3.66594 15.6796 5.57156 16.2846 7.62094 16.2846C14.2571 16.2846 17.8659 10.7196 17.8659 5.91525L17.8534 5.44525C18.5784 4.91838 19.2071 4.25488 19.7587 3.77438Z" fill="#505F79"/>
</svg> 